<svg width="24" height="24" viewBox="0 0 24 24" fill="none" xmlns="http://www.w3.org/2000/svg">
<path d="M3.29883 12.2441C3.29883 11.8467 3.63184 11.5137 4.0293 11.5137H11.2695V4.2627C11.2695 3.87598 11.6025 3.54297 12 3.54297C12.3975 3.54297 12.7305 3.87598 12.7305 4.2627V11.5137H19.9814C20.3682 11.5137 20.7012 11.8467 20.7012 12.2441C20.7012 12.6416 20.3682 12.9746 19.9814 12.9746H12.7305V20.2148C12.7305 20.6123 12.3975 20.9453 12 20.9453C11.6025 20.9453 11.2695 20.6123 11.2695 20.2148V12.9746H4.0293C3.63184 12.9746 3.29883 12.6416 3.29883 12.2441Z" fill="white"/>
</svg>
