<svg width="24" height="24" viewBox="0 0 24 24" fill="none" xmlns="http://www.w3.org/2000/svg">
<path d="M5.47949 22.1484C3.23438 22.1484 2.10645 21.042 2.10645 18.8184V5.70215C2.10645 3.47852 3.23438 2.37207 5.47949 2.37207H18.5098C20.7656 2.37207 21.8828 3.48926 21.8828 5.70215V18.8184C21.8828 21.0312 20.7656 22.1484 18.5098 22.1484H5.47949ZM10.7969 17.4971C11.1621 17.4971 11.4736 17.3252 11.6992 16.9707L16.748 9.02148C16.8877 8.7959 17.0166 8.54883 17.0166 8.3125C17.0166 7.80762 16.5762 7.48535 16.1143 7.48535C15.8242 7.48535 15.5449 7.65723 15.3408 7.97949L10.7539 15.3486L8.57324 12.5342C8.30469 12.1797 8.06836 12.083 7.76758 12.083C7.27344 12.083 6.89746 12.4805 6.89746 12.9639C6.89746 13.2109 6.99414 13.4473 7.15527 13.6621L9.85156 16.9707C10.1309 17.3467 10.4316 17.4971 10.7969 17.4971Z" fill="white"/>
</svg>
