<svg width="20" height="21" viewBox="0 0 20 21" fill="none" xmlns="http://www.w3.org/2000/svg">
<path d="M3.47949 20.1484C1.23438 20.1484 0.106445 19.042 0.106445 16.8184V3.70215C0.106445 1.47852 1.23438 0.37207 3.47949 0.37207H16.5098C18.7656 0.37207 19.8828 1.48926 19.8828 3.70215V16.8184C19.8828 19.0312 18.7656 20.1484 16.5098 20.1484H3.47949ZM3.50098 18.4189H16.4883C17.5518 18.4189 18.1533 17.8496 18.1533 16.7324V3.78809C18.1533 2.6709 17.5518 2.10156 16.4883 2.10156H3.50098C2.42676 2.10156 1.83594 2.6709 1.83594 3.78809V16.7324C1.83594 17.8496 2.42676 18.4189 3.50098 18.4189Z" fill="white"/>
</svg>
