<svg width="20" height="21" viewBox="0 0 20 21" fill="none" xmlns="http://www.w3.org/2000/svg">
<path d="M3.47949 20.1484C1.23438 20.1484 0.106445 19.042 0.106445 16.8184V3.70215C0.106445 1.47852 1.23438 0.37207 3.47949 0.37207H16.5098C18.7656 0.37207 19.8828 1.48926 19.8828 3.70215V16.8184C19.8828 19.0312 18.7656 20.1484 16.5098 20.1484H3.47949ZM8.79688 15.4971C9.16211 15.4971 9.47363 15.3252 9.69922 14.9707L14.748 7.02148C14.8877 6.7959 15.0166 6.54883 15.0166 6.3125C15.0166 5.80762 14.5762 5.48535 14.1143 5.48535C13.8242 5.48535 13.5449 5.65723 13.3408 5.97949L8.75391 13.3486L6.57324 10.5342C6.30469 10.1797 6.06836 10.083 5.76758 10.083C5.27344 10.083 4.89746 10.4805 4.89746 10.9639C4.89746 11.2109 4.99414 11.4473 5.15527 11.6621L7.85156 14.9707C8.13086 15.3467 8.43164 15.4971 8.79688 15.4971Z" fill="white"/>
</svg>
