<svg width="24" height="24" viewBox="0 0 24 24" fill="none" xmlns="http://www.w3.org/2000/svg">
<path d="M8.15723 12.7349C8.04785 12.7349 7.95671 12.6984 7.88379 12.6255C7.81543 12.5526 7.78125 12.4637 7.78125 12.3589C7.78125 12.2586 7.81543 12.172 7.88379 12.0991C7.95671 12.0262 8.04785 11.9897 8.15723 11.9897L11.5 11.9897L11.5 7.56689C11.5 7.46208 11.5365 7.37549 11.6094 7.30713C11.6823 7.23421 11.7689 7.19775 11.8691 7.19775C11.9785 7.19775 12.0674 7.23421 12.1357 7.30713C12.2087 7.37549 12.2451 7.46208 12.2451 7.56689L12.2451 12.3589C12.2451 12.4637 12.2087 12.5526 12.1357 12.6255C12.0674 12.6984 11.9785 12.7349 11.8691 12.7349L8.15723 12.7349ZM11.876 18.9214C10.9372 18.9214 10.0531 18.7414 9.22363 18.3813C8.39876 18.0259 7.6696 17.5337 7.03613 16.9048C6.40723 16.2713 5.91276 15.5422 5.55273 14.7173C5.19727 13.8879 5.01953 13.0037 5.01953 12.0649C5.01953 11.1261 5.19727 10.2443 5.55274 9.41943C5.91276 8.59001 6.40723 7.86084 7.03613 7.23193C7.66504 6.59847 8.39193 6.104 9.2168 5.74853C10.0462 5.38851 10.9303 5.2085 11.8691 5.2085C12.8079 5.2085 13.6921 5.38851 14.5215 5.74854C15.3509 6.104 16.0801 6.59847 16.709 7.23193C17.3379 7.86084 17.8324 8.59001 18.1924 9.41944C18.5524 10.2443 18.7324 11.1261 18.7324 12.0649C18.7324 13.0037 18.5524 13.8879 18.1924 14.7173C17.8324 15.5422 17.3379 16.2713 16.709 16.9048C16.0801 17.5337 15.3509 18.0259 14.5215 18.3813C13.6966 18.7414 12.8148 18.9214 11.876 18.9214ZM11.876 18.0396C12.7008 18.0396 13.4733 17.8846 14.1934 17.5747C14.918 17.2648 15.5537 16.8364 16.1006 16.2896C16.652 15.7427 17.0804 15.1092 17.3857 14.3892C17.6956 13.6646 17.8506 12.8898 17.8506 12.0649C17.8506 11.2401 17.6956 10.4676 17.3857 9.74756C17.0758 9.02295 16.6475 8.38721 16.1006 7.84033C15.5537 7.2889 14.918 6.86052 14.1934 6.55518C13.4733 6.24528 12.6986 6.09033 11.8691 6.09033C11.0443 6.09033 10.2695 6.24528 9.54492 6.55518C8.82487 6.86051 8.19141 7.2889 7.64453 7.84033C7.10221 8.38721 6.67611 9.02295 6.36621 9.74756C6.06087 10.4676 5.9082 11.2401 5.9082 12.0649C5.9082 12.8898 6.06087 13.6645 6.36621 14.3892C6.67611 15.1092 7.10449 15.7427 7.65137 16.2895C8.19824 16.8364 8.8317 17.2648 9.55176 17.5747C10.2718 17.8846 11.0465 18.0396 11.876 18.0396Z" fill="white"/>
</svg>
