<svg width="24" height="24" viewBox="0 0 24 24" fill="none" xmlns="http://www.w3.org/2000/svg">
<path d="M11.9893 17.6475C11.7637 17.6475 11.5811 17.5508 11.4092 17.3896L3.2666 8.81738C3.12695 8.66699 3.04102 8.49512 3.04102 8.28027C3.04102 7.86133 3.36328 7.53906 3.78223 7.53906C3.98633 7.53906 4.17969 7.61426 4.30859 7.75391L12 15.832L19.6699 7.75391C19.8096 7.61426 20.0137 7.53906 20.207 7.53906C20.626 7.53906 20.9482 7.86133 20.9482 8.28027C20.9482 8.49512 20.8623 8.66699 20.7227 8.80664L12.5801 17.3789C12.4189 17.5508 12.2148 17.6475 11.9893 17.6475Z" fill="white"/>
</svg>
