<svg width="24" height="24" viewBox="0 0 24 24" fill="none" xmlns="http://www.w3.org/2000/svg">
<path d="M4.69043 11.6753L4.71094 10.7798C5.77279 11.2036 6.90072 11.5135 8.09473 11.7095C9.28874 11.9054 10.5466 12.0034 11.8682 12.0034C13.1943 12.0034 14.4544 11.9077 15.6484 11.7163C16.8424 11.5203 17.9704 11.215 19.0322 10.8003L19.0527 11.6753C17.9362 12.0718 16.7786 12.3612 15.5801 12.5435C14.3815 12.7257 13.1442 12.8169 11.8682 12.8169C10.5967 12.8169 9.35938 12.7257 8.15625 12.5435C6.95768 12.3612 5.80241 12.0718 4.69043 11.6753ZM10.8291 14.0063C10.3551 14.0063 10.1182 13.7739 10.1182 13.3091V12.3794L13.6182 12.3794V13.3091C13.6182 13.7739 13.3812 14.0063 12.9072 14.0063L10.8291 14.0063ZM6.06445 18.5796C5.41732 18.5796 4.93197 18.4201 4.6084 18.1011C4.28483 17.7866 4.12305 17.3035 4.12305 16.6519L4.12305 9.90478C4.12305 9.25765 4.28483 8.77685 4.6084 8.4624C4.93197 8.14339 5.41732 7.98389 6.06446 7.98389L17.6719 7.98389C18.3236 7.98389 18.8112 8.14339 19.1348 8.4624C19.4583 8.77686 19.6201 9.25765 19.6201 9.90479L19.6201 16.6519C19.6201 17.3036 19.4583 17.7866 19.1348 18.1011C18.8112 18.4201 18.3236 18.5796 17.6719 18.5796L6.06445 18.5796ZM6.07129 17.7456L17.665 17.7456C18.0387 17.7456 18.3167 17.6522 18.499 17.4653C18.6859 17.283 18.7793 17.0005 18.7793 16.6177L18.7793 9.9458C18.7793 9.56299 18.6859 9.28044 18.499 9.09815C18.3167 8.9113 18.0387 8.81787 17.665 8.81787L6.07129 8.81787C5.70215 8.81787 5.42416 8.91129 5.23731 9.09814C5.05501 9.28043 4.96387 9.56299 4.96387 9.9458L4.96387 16.6177C4.96387 17.0005 5.05501 17.283 5.2373 17.4653C5.42415 17.6522 5.70215 17.7456 6.07129 17.7456ZM8.50489 8.44873V7.21826C8.50489 6.66227 8.65983 6.24528 8.96973 5.96728C9.27963 5.68929 9.6989 5.55029 10.2275 5.55029L13.502 5.55029C14.0579 5.55029 14.4841 5.68929 14.7803 5.96729C15.0811 6.24528 15.2314 6.66227 15.2314 7.21826L15.2314 8.4419L14.4111 8.4419L14.4111 7.17041C14.4111 6.90153 14.3337 6.69417 14.1787 6.54834C14.0238 6.40251 13.805 6.32959 13.5225 6.32959L10.2139 6.32959C9.93132 6.32959 9.71257 6.40251 9.55762 6.54834C9.40267 6.69417 9.3252 6.90153 9.3252 7.17041V8.44873L8.50489 8.44873Z" fill="white"/>
</svg>
