<svg width="24" height="24" viewBox="0 0 24 24" fill="none" xmlns="http://www.w3.org/2000/svg">
<path d="M7.40592 18.6067C7.18034 18.4358 7.12565 18.1555 7.26921 17.7385L8.71843 13.3635L4.97233 10.6633C4.61686 10.4104 4.48698 10.1506 4.57585 9.8772C4.66472 9.61059 4.91764 9.47388 5.36198 9.47388L9.9694 9.50122L11.3776 5.10571C11.5143 4.68188 11.7126 4.48364 11.9997 4.48364C12.28 4.48364 12.485 4.68188 12.6217 5.10571L14.0299 9.50122L18.6374 9.47388C19.0749 9.47388 19.3278 9.6106 19.4167 9.8772C19.5055 10.1506 19.3825 10.4104 19.027 10.6633L15.2741 13.3635L16.7301 17.7385C16.8737 18.1555 16.819 18.4358 16.5866 18.6067C16.361 18.7776 16.0739 18.7297 15.7253 18.47L11.9997 15.7424L8.27409 18.47C7.91862 18.7297 7.63835 18.7776 7.40592 18.6067Z" fill="white"/>
</svg>
