<svg width="16" height="15" viewBox="0 0 16 15" fill="none" xmlns="http://www.w3.org/2000/svg">
<path d="M3.40625 14.6064C3.18066 14.4355 3.12597 14.1553 3.26953 13.7383L4.71875 9.36328L0.972653 6.66309C0.617185 6.41016 0.487302 6.15039 0.576169 5.87695C0.665037 5.61035 0.917966 5.47363 1.3623 5.47363L5.96972 5.50098L7.37793 1.10547C7.51465 0.681644 7.71289 0.483402 8 0.483402C8.28027 0.483402 8.48535 0.681644 8.62207 1.10547L10.0303 5.50098L14.6377 5.47364C15.0752 5.47364 15.3281 5.61036 15.417 5.87696C15.5059 6.1504 15.3828 6.41016 15.0273 6.66309L11.2744 9.36329L12.7305 13.7383C12.874 14.1553 12.8193 14.4356 12.5869 14.6064C12.3613 14.7773 12.0742 14.7295 11.7256 14.4697L8 11.7422L4.27441 14.4697C3.91894 14.7295 3.63867 14.7773 3.40625 14.6064ZM4.13769 13.6016C4.1582 13.6221 4.17871 13.6084 4.21972 13.5811L7.70605 10.9561C7.89062 10.8125 8.10254 10.8125 8.29394 10.9561L11.7803 13.5811C11.8213 13.6084 11.8418 13.6221 11.8555 13.6016C11.876 13.5811 11.8691 13.5742 11.8555 13.5264L10.4473 9.39063C10.3652 9.16504 10.4199 8.97364 10.625 8.83692L14.1934 6.32813C14.2344 6.30079 14.248 6.28711 14.2412 6.25977C14.2344 6.23926 14.2139 6.23926 14.166 6.23926L9.79785 6.29395C9.55859 6.30078 9.40136 6.19825 9.32617 5.95899L8.04785 1.78907C8.03418 1.74121 8.02051 1.72071 8 1.72071C7.97949 1.72071 7.96582 1.74121 7.95215 1.78907L6.67383 5.95899C6.59863 6.19824 6.4414 6.30078 6.20215 6.29395L1.83398 6.23926C1.78613 6.23926 1.76562 6.23926 1.75879 6.25977C1.74511 6.28711 1.76562 6.30078 1.80664 6.32813L5.375 8.83692C5.58007 8.97364 5.62793 9.16504 5.55273 9.39063L4.14453 13.5264C4.13085 13.5742 4.12402 13.5811 4.13769 13.6016Z" fill="white"/>
</svg>
